:FULLY-SPECIFIED
:FORCE-ALL-JOINTS-BE-3DOF
:DEGREES
747
root 3.53521 18.7178 13.2743 -93.6979 3.29785 217.435
lfemur -37.5031 4.62176 -5.43011
ltibia 60.281 0 0
lfoot -9.64879 8.16894 0
ltoes 26.7605 0 0
rfemur -23.9279 -14.8239 11.4449
rtibia 71.809 0 0
rfoot -0.556888 -28.4417 0
rtoes 7.56329 0 0
lowerback 3.43897 2.1747 -1.66904
upperback -1.22178 2.77684 -2.90348
thorax -3.03146 1.41226 -2.07299
lowerneck -5.98443 -6.73884 -1.70548
upperneck -1.69207 -8.87392 5.40935
head 0.821248 -4.36411 1.7374
lclavicle -5.80215e-15 -9.68711e-15 0
lhumerus -29.554 -15.844 57.6592
lradius 58.6859 0 0
lwrist 16.6599 0 0
lhand -20.6951 -4.91273 0
lfingers 7.12502 0 0
lthumb 5.66868 24.9887 0
rclavicle -5.80215e-15 -9.68711e-15 0
rhumerus -20.7559 24.718 -71.3432
rradius 89.1109 0 0
rwrist -0.975855 0 0
rhand -24.7177 -26.776 0
rfingers 7.12502 0 0
rthumb 1.78413 -776.734 0
748
root 3.46126 18.6129 13.4859 -92.5783 6.7267 220.37
lfemur -37.626 5.30214 -5.97102
ltibia 59.9704 0 0
lfoot -10.2618 8.78739 0
ltoes 26.6145 0 0
rfemur -23.5773 -15.3327 11.9213
rtibia 71.0475 0 0
rfoot -1.35942 -28.7808 0
rtoes 6.31022 0 0
lowerback 3.33832 2.28154 -1.66267
upperback -1.22001 2.92343 -2.95309
thorax -2.96709 1.48542 -2.1324
lowerneck -5.95332 -6.75456 -1.68109
upperneck -1.74294 -8.89202 5.42762
head 0.800236 -4.37279 1.74041
lclavicle -6.18039e-15 -1.02008e-14 0
lhumerus -30.6503 -15.6673 59.2127
lradius 59.192 0 0
lwrist 16.4269 0 0
lhand -20.6516 -4.97388 0
lfingers 7.12502 0 0
lthumb 5.71068 24.9265 0
rclavicle -6.18039e-15 -1.02008e-14 0
rhumerus -21.1013 25.7357 -72.9969
rradius 88.7333 0 0
rwrist -0.651949 0 0
rhand -24.6167 -26.4743 0
rfingers 7.12502 0 0
rthumb 1.88164 -776.431 0
749
root 3.38752 18.5083 13.697 -91.4508 10.1449 223.293
lfemur -37.7486 5.98023 -6.51003
ltibia 59.6611 0 0
lfoot -10.873 9.40393 0
ltoes 26.4687 0 0
rfemur -23.2276 -15.8396 12.3963
rtibia 70.2876 0 0
rfoot -2.15952 -29.1186 0
rtoes 5.06057 0 0
lowerback 3.238 2.38805 -1.6563
upperback -1.21823 3.06955 -3.00254
thorax -2.9029 1.55834 -2.19162
lowerneck -5.9223 -6.7702 -1.65675
upperneck -1.79363 -8.91002 5.4458
head 0.779287 -4.38142 1.7434
lclavicle -6.54817e-15 -1.07153e-14 0
lhumerus -31.7432 -15.4911 60.7614
lradius 59.6968 0 0
lwrist 16.1948 0 0
lhand -20.6083 -5.03477 0
lfingers 7.12502 0 0
lthumb 5.75251 24.8645 0
rclavicle -6.54817e-15 -1.07153e-14 0
rhumerus -21.4459 26.7503 -74.6457
rradius 88.3568 0 0
rwrist -0.329044 0 0
rhand -24.5163 -26.1737 0
rfingers 7.12502 0 0
rthumb 1.97866 -776.13 0
750
root 3.31409 18.4041 13.9071 -90.3171 13.5482 226.201
lfemur -37.8704 6.65515 -7.04646
ltibia 59.3533 0 0
lfoot -11.4814 10.0178 0
ltoes 26.3232 0 0
rfemur -22.8793 -16.3442 12.8693
rtibia 69.5303 0 0
rfoot -2.95619 -29.4546 0
rtoes 3.81589 0 0
lowerback 3.13812 2.49408 -1.64994
upperback -1.21644 3.21503 -3.05176
thorax -2.83898 1.63094 -2.2506
lowerneck -5.89141 -6.78574 -1.63247
upperneck -1.8441 -8.92789 5.46387
head 0.758428 -4.38999 1.74636
lclavicle -6.90415e-15 -1.12293e-14 0
lhumerus -32.8313 -15.3157 62.3035
lradius 60.1994 0 0
lwrist 15.9638 0 0
lhand -20.5652 -5.09533 0
lfingers 7.12502 0 0
lthumb 5.79413 24.8028 0
rclavicle -6.90415e-15 -1.12293e-14 0
rhumerus -21.7891 27.7604 -76.2874
rradius 87.9819 0 0
rwrist -0.00753697 0 0
rhand -24.4164 -25.8745 0
rfingers 7.12502 0 0
rthumb 2.07508 -775.83 0
751
root 3.24105 18.3005 14.116 -89.1789 16.9326 229.092
lfemur -37.9915 7.32606 -7.57965
ltibia 59.0473 0 0
lfoot -12.0864 10.6282 0
ltoes 26.1782 0 0
rfemur -22.5328 -16.8458 13.3396
rtibia 68.7766 0 0
rfoot -3.74846 -29.7885 0
rtoes 2.57769 0 0
lowerback 3.03881 2.59952 -1.64358
upperback -1.21464 3.3597 -3.10071
thorax -2.7754 1.70314 -2.30925
lowerneck -5.86069 -6.80116 -1.6083
upperneck -1.89427 -8.94563 5.48181
head 0.737683 -4.39849 1.74929
lclavicle -7.24698e-15 -1.17417e-14 0
lhumerus -33.9133 -15.1413 63.8371
lradius 60.6993 0 0
lwrist 15.7343 0 0
lhand -20.5223 -5.15549 0
lfingers 7.12502 0 0
lthumb 5.83547 24.7416 0
rclavicle -7.24698e-15 -1.17417e-14 0
rhumerus -22.1306 28.7648 -77.9202
rradius 87.609 0 0
rwrist 0.312175 0 0
rhand -24.3174 -25.577 0
rfingers 7.12502 0 0
rthumb 2.17077 -775.532 0
752
root 3.1685 18.1976 14.3236 -88.0381 20.2937 231.964
lfemur -38.1115 7.9921 -8.10894
ltibia 58.7436 0 0
lfoot -12.6873 11.2345 0
ltoes 26.0338 0 0
rfemur -22.1887 -17.3437 13.8068
rtibia 68.0274 0 0
rfoot -4.53534 -30.1197 0
rtoes 1.34752 0 0
lowerback 2.94019 2.70424 -1.63723
upperback -1.21283 3.50338 -3.14932
thorax -2.71223 1.77484 -2.36751
lowerneck -5.83017 -6.81643 -1.58426
upperneck -1.94408 -8.9632 5.4996
head 0.717078 -4.40691 1.75219
lclavicle -7.57533e-15 -1.22514e-14 0
lhumerus -34.9878 -14.9681 65.3603
lradius 61.196 0 0
lwrist 15.5064 0 0
lhand -20.4799 -5.21517 0
lfingers 7.12502 0 0
lthumb 5.87647 24.6808 0
rclavicle -7.57533e-15 -1.22514e-14 0
rhumerus -22.47 29.7623 -79.542
rradius 87.2387 0 0
rwrist 0.629696 0 0
rhand -24.2191 -25.2817 0
rfingers 7.12502 0 0
rthumb 2.26564 -775.236 0
